# xmcd
#
# Track frame offsets:
# 150
# 15014
# 30748
# 48044
# 68654
# 84491
# 99562
# 117371
# 131930
# 149722
# 165731
# 184525
#
# Disc length: 2667 seconds
#
#
# Revision: 0
# Processed by: cddbd v1.5.1PL0 Copyright (c) Steve Scherf et al.
# Submitted via: FreeRIP 2.941 
#
DISCID=990a690c
DTITLE=Jo Dee Messina - Delicious Surprise
DYEAR=2005
DGENRE=Country
TTITLE0=Not Going Down
TTITLE1=Someone Else's Life
TTITLE2=Delicious Surprise (I Believe It)
TTITLE3=It Gets Better
TTITLE4=Who's Crying Now
TTITLE5=My Give A Damn's Busted
TTITLE6=It's Too Late To Worry
TTITLE7=Life Is Good
TTITLE8=Love Is Not Enough
TTITLE9=Where Were You
TTITLE10=I Wear My Life
TTITLE11=You Were Just Here
EXTD=
EXTT0=
EXTT1=
EXTT2=
EXTT3=
EXTT4=
EXTT5=
EXTT6=
EXTT7=
EXTT8=
EXTT9=
EXTT10=
EXTT11=
PLAYORDER=
